# xmcd CD database file
#
# Track frame offsets:
#	150
#	18650
#	43942
#	62405
#	87505
#
# Disc length: 1257 seconds
#
# Revision: 0
# Processed by: cddbd v1.5.1PL0 Copyright (c) Steve Scherf et al.
# Submitted via: CDex 1.51
#
DISCID=3d04e705
DTITLE=種浦マサオ - チャイニーズレストランへ行こう!
DYEAR=1995
DGENRE=J-Pop
TTITLE0=チャイニーズレストランへ行こう!
TTITLE1=夢想
TTITLE2=チャイニーズレストランへ行こう! (オリジナルカラオケ)
TTITLE3=夢想 (オリジナルカラオケ)
TTITLE4=チャイニーズレストランへ行こう! (o-ma-ke)
EXTD=YEAR: 1995
EXTT0=
EXTT1=
EXTT2=
EXTT3=
EXTT4=
PLAYORDER=
